# AST/ASF file generated using VICON BodyLanguage
# -----------------------------------------------
:version 1.10
:name VICON
:units
  mass 1.0
  length 0.45
  angle deg
:documentation
   .ast/.asf automatically generated from VICON data using
   VICON BodyBuilder and BodyLanguage model FoxedUp or BRILLIANT.MOD
:root
   order TX TY TZ RX RY RZ
   axis XYZ
   position 0 0 0  
   orientation 0 0 0 
:bonedata
  begin
     id 1 
     name lhipjoint
     direction 0.547975 -0.797114 0.253638 
     length 2.36201 
     axis 0 0 0  XYZ
  end
  begin
     id 2 
     name lfemur
     direction 0.34202 -0.939693 0  
     length 7.69075  
     axis 0 0 20  XYZ
    dof rx ry rz
    limits (-160.0 20.0)
           (-70.0 70.0)
           (-60.0 70.0)
  end
  begin
     id 3 
     name ltibia
     direction 0.34202 -0.939693 0   
     length 7.91399   
     axis 0 0 20   XYZ
    dof rx
    limits (-10.0 170.0)
  end
  begin
     id 4 
     name lfoot
     direction 0.0705293 -0.193778 0.978507   
     length 2.13618   
     axis -90 7.62852e-016 20   XYZ
    dof rx rz
    limits (-45.0 90.0)
           (-70.0 20.0)
  end
  begin
     id 5 
     name ltoes
     direction 1.53592e-011 -4.21925e-011 1   
     length 1.07518   
     axis -90 7.62852e-016 20   XYZ
    dof rx
    limits (-90.0 20.0)
  end
  begin
     id 6 
     name rhipjoint
     direction -0.57 -0.782963 0.249136   
     length 2.4047  
     axis 0 0 0  XYZ 
  end
  begin
     id 7 
     name rfemur
     direction -0.34202 -0.939693 0   
     length 7.51486   
     axis 0 0 -20   XYZ
    dof rx ry rz
    limits (-160.0 20.0)
           (-70.0 70.0)
           (-70.0 60.0)
  end
  begin
     id 8 
     name rtibia
     direction -0.34202 -0.939693 0   
     length 8.08317   
     axis 0 0 -20   XYZ
    dof rx
    limits (-10.0 170.0)
 end
 begin
     id 9 
     name rfoot
     direction -0.104954 -0.281256 0.953876   
     length 2.30343  
     axis -90 -7.62852e-016 -20   XYZ
    dof rx rz
    limits (-45.0 90.0)
           (-20.0 70.0)
  end
  begin
     id 10 
     name rtoes
     direction -1.53556e-011 -4.21922e-011 1   
     length 1.14803   
     axis -90 -7.62852e-016 -20   XYZ
    dof rx
    limits (-90.0 20.0)
  end
  begin
     id 11 
     name lowerback
     direction -0.0152855 0.99353 -0.11254   
     length 2.05311   
     axis 0 0 0   XYZ
    dof rx ry rz
    limits (-20.0 45.0)
           (-30.0 30.0)
           (-30.0 30.0)
  end
  begin
     id 12 
     name upperback
     direction -0.00157509 0.999443 -0.033332   
     length 2.06353   
     axis 0 0 0   XYZ
    dof rx ry rz
    limits (-20.0 45.0)
           (-30.0 30.0)
           (-30.0 30.0)
  end
  begin
     id 13 
     name thorax
     direction 0.00577788 0.999804 0.0189484   
     length 2.08472   
     axis 0 0 0   XYZ
    dof rx ry rz
    limits (-20.0 45.0)
           (-30.0 30.0)
           (-30.0 30.0)
  end
  begin
     id 14 
     name lowerneck
     direction -1.09301e-005 0.994719 0.10264   
     length 1.76249   
     axis 0 0 0   XYZ
    dof rx ry rz
    limits (-20.0 45.0)
           (-30.0 30.0)
           (-30.0 30.0)
  end
  begin
     id 15 
     name upperneck
     direction 0.0495018 0.988526 -0.142706   
     length 1.77897   
     axis 0 0 0   XYZ
    dof rx ry rz
    limits (-20.0 45.0)
           (-30.0 30.0)
           (-30.0 30.0)
  end
  begin
     id 16
     name head
     direction 0.0142736 0.998114 -0.0597101  
     length 1.78934  
     axis 0 0 0   XYZ
    dof rx ry rz
    limits (-20.0 45.0)
           (-30.0 30.0)
           (-30.0 30.0)
  end
  begin
     id 17 
     name lclavicle
     direction 0.918111 0.396107 -0.0130883  
     length 3.37276  
     axis 0 0 0   XYZ
    dof ry rz
    limits (-20.0 10.0)
           (0.0 20.0)
  end
  begin
     id 18 
     name lhumerus
     direction 1 -4.48975e-011 -3.26108e-027   
     length 5.34298   
     axis 180 -30 -90   XYZ
    dof rx ry rz
    limits (-60.0 90.0)
           (-90.0 90.0)
           (-90.0 90.0)
  end
  begin
     id 19
     name lradius
     direction 1 -4.48964e-011 -8.84413e-028   
     length 3.67262   
     axis 180 -30 -90   XYZ
    dof rx
    limits (-10.0 170.0)
  end
  begin
     id 20
     name lwrist
     direction 1 -4.48991e-011 -1.24264e-027   
     length 1.83631   
     axis -2.17013e-015 90 90   XYZ
    dof ry
    limits (-180.0 0.0)
 end
  begin
     id 21 
     name lhand
     direction 1 -4.48855e-011 -2.48528e-027   
     length 0.599298   
     axis 1.58582e-015 90 90   XYZ
    dof rx rz
    limits (-90.0 90.0)
           (-45.0 45.0)
  end
  begin
     id 22 
     name lfingers
     direction 1 -4.48811e-011 -4.97056e-027   
     length 0.48317   
     axis 3.17164e-015 90 90   XYZ
    dof rx
    limits (0.0 90.0)
  end
  begin
     id 23
     name lthumb
     direction 0.707107 -6.34882e-011 0.707107   
     length 0.693738   
     axis -90 45 2.85299e-015   XYZ
    dof rx rz
    limits (-45.0 45.0)
           (-45.0 45.0)
  end
  begin
     id 24 
     name rclavicle
     direction -0.920511 0.384752 -0.0680135   
     length 3.43787  
     axis 0 0 0   XYZ 
    dof ry rz
    limits (-10.0 20.0)
           (-20.0 0.0)
  end
  begin
     id 25 
     name rhumerus
     direction -0.999976 -0.00330524 0.00603274  
     length 5.5498   
     axis 180 30 90   XYZ
    dof rx ry rz
    limits (-90.0 60.0)
           (-90.0 90.0)
           (-90.0 90.0)
  end
  begin
     id 26 
     name rradius
     direction -1 -4.48967e-011 8.62438e-027   
     length 3.69401   
     axis 180 30 90   XYZ
    dof rx
    limits (-10.0 170.0)
  end
  begin
     id 27 
     name rwrist
     direction -1 -4.4897e-011 9.54866e-027   
     length 1.84701   
     axis -7.69462e-015 -90 -90   XYZ
    dof ry
    limits (-180.0 0.0)
  end
  begin
     id 28
     name rhand
     direction -1 -4.48982e-011 1.90973e-026   
     length 0.638113   
     axis -1.21857e-014 -90 -90   XYZ
    dof rx rz
    limits (-90.0 90.0)
           (-45.0 45.0)
  end
  begin
     id 29
     name rfingers
     direction -1 -4.48936e-011 3.81946e-026   
     length 0.514463   
     axis -2.43714e-014 -90 -90   XYZ
    dof rx
    limits (0.0 90.0)
  end
  begin
     id 30
     name rthumb
     direction -0.707107 -6.34942e-011 0.707107   
     length 0.738669   
     axis -90 -45 -2.85299e-015   XYZ
    dof rx rz
    limits (-45.0 45.0)
           (-45.0 45.0)
  end
:hierarchy
  begin
    root lhipjoint rhipjoint lowerback
    lhipjoint lfemur
    lfemur ltibia
    ltibia lfoot
    lfoot ltoes
    rhipjoint rfemur
    rfemur rtibia
    rtibia rfoot
    rfoot rtoes
    lowerback upperback
    upperback thorax
    thorax lowerneck lclavicle rclavicle
    lowerneck upperneck
    upperneck head
    lclavicle lhumerus
    lhumerus lradius
    lradius lwrist
    lwrist lhand lthumb
    lhand lfingers
    rclavicle rhumerus
    rhumerus rradius
    rradius rwrist
    rwrist rhand rthumb
    rhand rfingers
  end

#!OML:ASF F:\twosubjects\two\Thursday\Session 1\Rory.ASF
:FULLY-SPECIFIED
:DEGREES
158
root -1.10947 18.3611 4.19688 -358.081 61.7292 -359.37
lowerback 6.79456 -0.104428 -4.22593
upperback 3.11736 -0.349964 -2.54143
thorax -0.578363 -0.162878 -0.221178
lowerneck -12.0342 1.4632 1.39697
upperneck 30.5192 2.84126 -1.44847
head 12.0486 1.44933 -0.354403
rclavicle 5.52621e-014 1.35174e-014
rhumerus -19.7637 33.7117 -90.9711
rradius 92.7607
rwrist -3.68759
rhand -19.9561 1.17303
rfingers 7.12502
rthumb 6.38219 -28.7108
lclavicle 5.52621e-014 1.35174e-014
lhumerus -21.1467 -17.1167 94.3749
lradius 75.5641
lwrist 27.2079
lhand -0.803031 35.8024
lfingers 7.12502
lthumb 24.821 64.2114
rfemur -25.1303 22.6521 2.49747
rtibia 23.4786
rfoot 0.504049 7.55159
rtoes 14.8673
lfemur -15.8926 4.28337 -12.2944
ltibia 21.3252
lfoot -4.3365 0.987872
ltoes -18.6591
159
root -1.14375 18.3738 4.07519 -358.17 60.8045 -359.276
lowerback 6.85566 -0.167483 -4.50441
upperback 3.19541 -0.449083 -2.60777
thorax -0.526071 -0.214841 -0.127142
lowerneck -12.0644 1.70002 1.75261
upperneck 30.4339 3.1501 -1.68352
head 12.0376 1.59269 -0.462629
rclavicle 5.14852e-014 1.35174e-014
rhumerus -19.4723 34.5124 -90.7846
rradius 93.136
rwrist -4.20056
rhand -20.022 0.994274
rfingers 7.12502
rthumb 6.31861 -28.8915
lclavicle 5.14852e-014 1.35174e-014
lhumerus -20.7708 -16.898 94.1707
lradius 75.8995
lwrist 27.9079
lhand -1.59087 36.3796
lfingers 7.12502
lthumb 24.0658 64.8906
rfemur -24.872 20.9153 3.67593
rtibia 23.7421
rfoot -0.170032 4.0024
rtoes 6.1475
lfemur -15.5574 2.95548 -12.2988
ltibia 21.0874
lfoot -4.61462 2.83799
ltoes -6.83166
160
root -1.19072 18.3797 3.95367 -358.238 60.2457 -359.487
lowerback 6.70457 -0.300747 -4.65205
upperback 3.20562 -0.625377 -2.55793
thorax -0.423626 -0.307105 0.0179826
lowerneck -12.1233 1.81911 1.66137
upperneck 30.3858 3.30157 -1.59071
head 12.0304 1.6565 -0.391454
rclavicle 3.67752e-014 -1.90833e-014
rhumerus -19.0604 35.1115 -90.3955
rradius 93.4032
rwrist -4.36336
rhand -20.084 1.0331
rfingers 7.12502
rthumb 6.25867 -28.8544
lclavicle 3.67752e-014 -1.90833e-014
lhumerus -20.3032 -16.9735 94.0389
lradius 75.9955
lwrist 28.6341
lhand -2.30302 36.566
lfingers 7.12502
lthumb 23.3827 65.1655
rfemur -24.965 20.3776 4.17599
rtibia 24.2772
rfoot -1.53633 -1.08742
rtoes 14.3621
lfemur -15.7348 1.53745 -12.2625
ltibia 20.8757
lfoot -4.61325 4.5471
ltoes -2.52738
161
root -1.21021 18.3867 3.84541 -358.758 58.8293 -359.854
lowerback 6.50103 -0.0987058 -4.67814
upperback 3.30389 -0.340363 -2.54964
thorax -0.218471 -0.170093 0.0206645
lowerneck -12.2202 1.78007 1.29357
upperneck 30.5629 3.24422 -1.2837
head 12.1073 1.62441 -0.218985
rclavicle 5.96354e-016 2.38542e-015
rhumerus -18.9102 35.7703 -90.2935
rradius 93.8052
rwrist -5.31067
rhand -21.5487 0.559115
rfingers 7.12502
rthumb 4.84456 -29.3655
lclavicle 5.96354e-016 2.38542e-015
lhumerus -19.9415 -17.1387 93.8891
lradius 76.0778
lwrist 29.9498
lhand -1.58013 36.6265
lfingers 7.12502
lthumb 24.076 65.1361
rfemur -24.9099 19.3565 5.52054
rtibia 25.1363
rfoot -3.2372 -4.86962
rtoes 13.5048
lfemur -15.2452 0.783774 -12.1259
ltibia 20.659
lfoot -5.12185 6.54263
ltoes 2.11267
162
root -1.24163 18.3856 3.73079 -358.387 57.8629 -359.328
lowerback 6.46221 0.018709 -4.99913
upperback 3.26834 -0.201469 -2.68949
thorax -0.236188 -0.101947 0.0464626
lowerneck -12.0447 1.69769 1.22138
upperneck 30.5182 3.15845 -1.34394
head 12.0513 1.57052 -0.243722
rclavicle -4.31363e-014 -5.56597e-015
rhumerus -18.8664 35.9877 -90.1386
rradius 94.1599
rwrist -5.51629
rhand -21.9269 0.535779
rfingers 7.12502
rthumb 4.47932 -29.3969
lclavicle -4.31363e-014 -5.56597e-015
lhumerus -19.8283 -17.4063 93.8671
lradius 76.4082
lwrist 31.5681
lhand -1.25621 36.3307
lfingers 7.12502
lthumb 24.3866 64.7989
rfemur -24.9992 18.043 6.20811
rtibia 26.1736
rfoot -5.40006 -8.70188
rtoes 15.0265
lfemur -15.1497 0.70875 -12.6246
ltibia 20.5169
lfoot -5.28353 7.60589
ltoes 5.73019
